<?xml version="1.0" encoding="UTF-8"?>
<svg xmlns="http://www.w3.org/2000/svg" version="1.1" width="300" height="300" viewBox="0 0 300 300"><rect x="0" y="0" width="300" height="300" fill="#ffffff"/><g transform="scale(8.571)"><g transform="translate(1,1)"><path fill-rule="evenodd" d="M11 0L11 1L12 1L12 2L11 2L11 3L9 3L9 2L8 2L8 4L11 4L11 5L9 5L9 6L8 6L8 7L9 7L9 6L10 6L10 7L11 7L11 6L12 6L12 7L13 7L13 6L12 6L12 5L14 5L14 7L15 7L15 5L18 5L18 7L17 7L17 6L16 6L16 9L13 9L13 8L11 8L11 9L10 9L10 8L9 8L9 11L10 11L10 12L8 12L8 14L6 14L6 13L7 13L7 12L6 12L6 11L8 11L8 10L6 10L6 11L4 11L4 10L2 10L2 11L1 11L1 12L3 12L3 14L1 14L1 13L0 13L0 14L1 14L1 15L0 15L0 17L1 17L1 18L0 18L0 19L1 19L1 18L2 18L2 20L1 20L1 21L0 21L0 25L2 25L2 24L3 24L3 23L2 23L2 24L1 24L1 22L2 22L2 20L3 20L3 21L4 21L4 20L3 20L3 19L5 19L5 18L2 18L2 17L7 17L7 18L6 18L6 19L7 19L7 20L6 20L6 21L7 21L7 22L6 22L6 23L8 23L8 22L9 22L9 23L11 23L11 24L9 24L9 25L8 25L8 24L4 24L4 25L8 25L8 27L9 27L9 28L8 28L8 30L10 30L10 29L9 29L9 28L11 28L11 27L10 27L10 26L12 26L12 27L15 27L15 29L14 29L14 28L12 28L12 29L11 29L11 31L10 31L10 32L9 32L9 33L13 33L13 31L14 31L14 33L15 33L15 30L20 30L20 33L25 33L25 32L26 32L26 31L25 31L25 30L24 30L24 31L25 31L25 32L23 32L23 31L21 31L21 30L22 30L22 28L21 28L21 29L18 29L18 28L19 28L19 27L18 27L18 26L17 26L17 25L16 25L16 26L17 26L17 28L16 28L16 27L15 27L15 25L13 25L13 23L15 23L15 24L16 24L16 23L15 23L15 22L18 22L18 23L17 23L17 24L18 24L18 25L20 25L20 26L21 26L21 27L23 27L23 29L27 29L27 30L28 30L28 31L29 31L29 30L28 30L28 29L30 29L30 28L31 28L31 31L30 31L30 33L31 33L31 32L33 32L33 30L32 30L32 29L33 29L33 28L32 28L32 27L30 27L30 24L32 24L32 25L33 25L33 24L32 24L32 23L33 23L33 22L32 22L32 21L33 21L33 20L32 20L32 19L33 19L33 17L32 17L32 16L33 16L33 15L32 15L32 16L31 16L31 14L32 14L32 13L33 13L33 10L32 10L32 9L31 9L31 8L29 8L29 9L27 9L27 10L26 10L26 9L25 9L25 10L26 10L26 11L24 11L24 9L20 9L20 7L21 7L21 6L22 6L22 7L23 7L23 6L24 6L24 8L25 8L25 6L24 6L24 5L25 5L25 4L24 4L24 2L20 2L20 3L19 3L19 1L23 1L23 0L18 0L18 3L16 3L16 0L14 0L14 1L12 1L12 0ZM24 0L24 1L25 1L25 0ZM14 1L14 4L15 4L15 1ZM11 3L11 4L13 4L13 3ZM18 3L18 4L19 4L19 5L20 5L20 4L21 4L21 3L20 3L20 4L19 4L19 3ZM22 3L22 5L23 5L23 3ZM19 6L19 7L20 7L20 6ZM3 8L3 9L5 9L5 8ZM6 8L6 9L8 9L8 8ZM17 8L17 10L13 10L13 9L11 9L11 10L10 10L10 11L11 11L11 13L12 13L12 14L13 14L13 15L14 15L14 16L15 16L15 17L13 17L13 18L12 18L12 17L10 17L10 19L8 19L8 20L7 20L7 21L9 21L9 20L11 20L11 21L10 21L10 22L11 22L11 23L12 23L12 22L11 22L11 21L12 21L12 19L14 19L14 20L13 20L13 22L15 22L15 20L16 20L16 21L17 21L17 20L18 20L18 21L19 21L19 19L20 19L20 18L21 18L21 17L22 17L22 19L21 19L21 21L20 21L20 22L22 22L22 21L23 21L23 23L20 23L20 25L21 25L21 26L24 26L24 24L27 24L27 23L26 23L26 22L25 22L25 21L23 21L23 18L24 18L24 16L26 16L26 15L27 15L27 13L26 13L26 12L24 12L24 14L23 14L23 12L22 12L22 14L21 14L21 11L22 11L22 10L21 10L21 11L20 11L20 10L18 10L18 9L19 9L19 8ZM0 9L0 10L1 10L1 9ZM29 9L29 10L28 10L28 11L29 11L29 12L30 12L30 13L29 13L29 14L28 14L28 16L27 16L27 17L28 17L28 16L29 16L29 14L31 14L31 13L32 13L32 12L30 12L30 11L31 11L31 10L30 10L30 9ZM11 10L11 11L12 11L12 13L13 13L13 12L14 12L14 14L17 14L17 15L19 15L19 16L17 16L17 17L20 17L20 16L21 16L21 14L20 14L20 13L19 13L19 12L20 12L20 11L18 11L18 10L17 10L17 13L15 13L15 12L14 12L14 11L13 11L13 10ZM3 11L3 12L4 12L4 15L1 15L1 16L7 16L7 15L5 15L5 13L6 13L6 12L4 12L4 11ZM17 13L17 14L19 14L19 13ZM25 13L25 14L26 14L26 13ZM8 14L8 15L9 15L9 16L11 16L11 14L10 14L10 15L9 15L9 14ZM15 15L15 16L16 16L16 15ZM22 16L22 17L23 17L23 16ZM30 16L30 18L31 18L31 19L32 19L32 17L31 17L31 16ZM8 17L8 18L9 18L9 17ZM15 17L15 19L16 19L16 20L17 20L17 19L18 19L18 18L16 18L16 17ZM11 18L11 19L12 19L12 18ZM28 18L28 20L26 20L26 19L25 19L25 20L26 20L26 21L29 21L29 18ZM30 20L30 21L32 21L32 20ZM4 22L4 23L5 23L5 22ZM24 22L24 23L25 23L25 22ZM29 22L29 23L28 23L28 24L29 24L29 23L31 23L31 22ZM18 23L18 24L19 24L19 23ZM22 24L22 25L23 25L23 24ZM9 25L9 26L10 26L10 25ZM25 25L25 28L28 28L28 25ZM26 26L26 27L27 27L27 26ZM12 29L12 31L11 31L11 32L12 32L12 31L13 31L13 30L14 30L14 29ZM17 32L17 33L18 33L18 32ZM28 32L28 33L29 33L29 32ZM0 0L0 7L7 7L7 0ZM1 1L1 6L6 6L6 1ZM2 2L2 5L5 5L5 2ZM26 0L26 7L33 7L33 0ZM27 1L27 6L32 6L32 1ZM28 2L28 5L31 5L31 2ZM0 26L0 33L7 33L7 26ZM1 27L1 32L6 32L6 27ZM2 28L2 31L5 31L5 28Z" fill="#000000"/></g></g></svg>
